# xmcd CD database file
#
# Track frame offsets:
#	150
#	1020
#	26890
#	57230
#	89452
#	110115
#	110982
#	136620
#	168240
#	198867
#	219960
#	220837
#	246585
#	277367
#	309037
#
# Disc length: 4431 seconds
#
# Revision: 0
# Processed by: cddbd v1.5PL3 Copyright (c) Steve Scherf et al.
# Submitted via: CDex 1.50
#
DISCID=d8114d0f
DTITLE=浅見ベートーベン - TOEIC TEST 600 リスニング完全征服法
DYEAR=2001
DGENRE=Other
TTITLE0=Track1
TTITLE1=Track2
TTITLE2=Track3
TTITLE3=Track4
TTITLE4=Track5
TTITLE5=Track6
TTITLE6=Track7
TTITLE7=Track8
TTITLE8=Track9
TTITLE9=Track10
TTITLE10=Track11
TTITLE11=Track12
TTITLE12=Track13
TTITLE13=Track14
TTITLE14=Track15
EXTD=YEAR: 2001
EXTT0=
EXTT1=
EXTT2=
EXTT3=
EXTT4=
EXTT5=
EXTT6=
EXTT7=
EXTT8=
EXTT9=
EXTT10=
EXTT11=
EXTT12=
EXTT13=
EXTT14=
PLAYORDER=
